<svg width="1050" height="846" viewBox="0 0 1050 846" class="keymap" xmlns="http://www.w3.org/2000/svg" xmlns:xlink="http://www.w3.org/1999/xlink">
<style>/* inherit to force styles through use tags */
svg path {
    fill: inherit;
}

/* font and background color specifications */
svg.keymap {
    font-family: SFMono-Regular,Consolas,Liberation Mono,Menlo,monospace;
    font-size: 14px;
    font-kerning: normal;
    text-rendering: optimizeLegibility;
    fill: #24292e;
}

/* default key styling */
rect.key {
    fill: #f6f8fa;
}

rect.key, rect.combo {
    stroke: #c9cccf;
    stroke-width: 1;
}

/* default key side styling, only used is draw_key_sides is set */
rect.side {
    filter: brightness(90%);
}

/* color accent for combo boxes */
rect.combo, rect.combo-separate {
    fill: #cdf;
}

/* color accent for held keys */
rect.held, rect.combo.held {
    fill: #fdd;
}

/* color accent for ghost (optional) keys */
rect.ghost, rect.combo.ghost {
    stroke-dasharray: 4, 4;
    stroke-width: 2;
}

text {
    text-anchor: middle;
    dominant-baseline: middle;
}

/* styling for layer labels */
text.label {
    font-weight: bold;
    text-anchor: start;
    stroke: white;
    stroke-width: 4;
    paint-order: stroke;
}

/* styling for optional footer */
text.footer {
    text-anchor: end;
    dominant-baseline: auto;
    stroke: white;
    stroke-width: 4;
    paint-order: stroke;
}

/* styling for combo tap, and key non-tap label text */
text.combo, text.hold, text.shifted, text.left, text.right {
    font-size: 11px;
}

text.hold {
    text-anchor: middle;
    dominant-baseline: auto;
}

text.shifted {
    text-anchor: middle;
    dominant-baseline: hanging;
}

text.left {
    text-anchor: start;
}

text.right {
    text-anchor: end;
}

text.layer-activator {
    text-decoration: underline;
}

/* styling for hold/shifted label text in combo box */
text.combo.hold, text.combo.shifted, text.combo.left, text.combo.right {
    font-size: 8px;
}

/* lighter symbol for transparent keys */
text.trans {
    fill: #7b7e81;
}

/* styling for combo dendrons */
path.combo {
    stroke-width: 1;
    stroke: gray;
    fill: none;
}

/* Start Tabler Icons Cleanup */
/* cannot use height/width with glyphs */
.icon-tabler > path {
    fill: inherit;
    stroke: inherit;
    stroke-width: 2;
}
/* hide tabler's default box */
.icon-tabler > path[stroke="none"][fill="none"] {
    visibility: hidden;
}
/* End Tabler Icons Cleanup */
</style>
<g transform="translate(30, 0)" class="layer-NAV">
<text x="0" y="28" class="label" id="NAV">NAV</text>
<g transform="translate(0, 56)">
<g transform="translate(30, 60)" class="key trans keypos-0">
<rect rx="6" ry="6" x="-28" y="-24" width="56" height="48" class="key trans"/>
<text x="0" y="0" class="key trans tap">▽</text>
</g>
<g transform="translate(90, 52)" class="key trans keypos-1">
<rect rx="6" ry="6" x="-28" y="-24" width="56" height="48" class="key trans"/>
<text x="0" y="0" class="key trans tap">▽</text>
</g>
<g transform="translate(150, 38)" class="key trans keypos-2">
<rect rx="6" ry="6" x="-28" y="-24" width="56" height="48" class="key trans"/>
<text x="0" y="0" class="key trans tap">▽</text>
</g>
<g transform="translate(210, 30)" class="key trans keypos-3">
<rect rx="6" ry="6" x="-28" y="-24" width="56" height="48" class="key trans"/>
<text x="0" y="0" class="key trans tap">▽</text>
</g>
<g transform="translate(270, 38)" class="key trans keypos-4">
<rect rx="6" ry="6" x="-28" y="-24" width="56" height="48" class="key trans"/>
<text x="0" y="0" class="key trans tap">▽</text>
</g>
<g transform="translate(330, 45)" class="key trans keypos-5">
<rect rx="6" ry="6" x="-28" y="-24" width="56" height="48" class="key trans"/>
<text x="0" y="0" class="key trans tap">▽</text>
</g>
<g transform="translate(660, 45)" class="key trans keypos-6">
<rect rx="6" ry="6" x="-28" y="-24" width="56" height="48" class="key trans"/>
<text x="0" y="0" class="key trans tap">▽</text>
</g>
<g transform="translate(720, 38)" class="key trans keypos-7">
<rect rx="6" ry="6" x="-28" y="-24" width="56" height="48" class="key trans"/>
<text x="0" y="0" class="key trans tap">▽</text>
</g>
<g transform="translate(780, 30)" class="key trans keypos-8">
<rect rx="6" ry="6" x="-28" y="-24" width="56" height="48" class="key trans"/>
<text x="0" y="0" class="key trans tap">▽</text>
</g>
<g transform="translate(840, 38)" class="key trans keypos-9">
<rect rx="6" ry="6" x="-28" y="-24" width="56" height="48" class="key trans"/>
<text x="0" y="0" class="key trans tap">▽</text>
</g>
<g transform="translate(900, 52)" class="key trans keypos-10">
<rect rx="6" ry="6" x="-28" y="-24" width="56" height="48" class="key trans"/>
<text x="0" y="0" class="key trans tap">▽</text>
</g>
<g transform="translate(960, 60)" class="key trans keypos-11">
<rect rx="6" ry="6" x="-28" y="-24" width="56" height="48" class="key trans"/>
<text x="0" y="0" class="key trans tap">▽</text>
</g>
<g transform="translate(30, 120)" class="key trans keypos-12">
<rect rx="6" ry="6" x="-28" y="-24" width="56" height="48" class="key trans"/>
<text x="0" y="0" class="key trans tap">▽</text>
</g>
<g transform="translate(90, 112)" class="key keypos-13">
<rect rx="6" ry="6" x="-28" y="-24" width="56" height="48" class="key"/>
<text x="0" y="0" class="key tap">
<tspan x="0" dy="-1.5em">BT</tspan><tspan x="0" dy="1.5em">CLR</tspan><tspan x="0" dy="1.5em">ALL</tspan>
</text>
</g>
<g transform="translate(150, 98)" class="key keypos-14">
<rect rx="6" ry="6" x="-28" y="-24" width="56" height="48" class="key"/>
<text x="0" y="0" class="key tap">BT</text>
<text x="0" y="22" class="key hold">0</text>
</g>
<g transform="translate(210, 90)" class="key keypos-15">
<rect rx="6" ry="6" x="-28" y="-24" width="56" height="48" class="key"/>
<text x="0" y="0" class="key tap">BT</text>
<text x="0" y="22" class="key hold">1</text>
</g>
<g transform="translate(270, 98)" class="key keypos-16">
<rect rx="6" ry="6" x="-28" y="-24" width="56" height="48" class="key"/>
<text x="0" y="0" class="key tap">BT</text>
<text x="0" y="22" class="key hold">2</text>
</g>
<g transform="translate(330, 105)" class="key keypos-17">
<rect rx="6" ry="6" x="-28" y="-24" width="56" height="48" class="key"/>
<text x="0" y="0" class="key tap">BT</text>
<text x="0" y="22" class="key hold">3</text>
</g>
<g transform="translate(660, 105)" class="key keypos-18">
<rect rx="6" ry="6" x="-28" y="-24" width="56" height="48" class="key"/>
<text x="0" y="0" class="key tap">HOME</text>
</g>
<g transform="translate(720, 98)" class="key keypos-19">
<rect rx="6" ry="6" x="-28" y="-24" width="56" height="48" class="key"/>
<text x="0" y="0" class="key tap">
<tspan x="0" dy="-0.75em">PG</tspan><tspan x="0" dy="1.5em">DN</tspan>
</text>
</g>
<g transform="translate(780, 90)" class="key keypos-20">
<rect rx="6" ry="6" x="-28" y="-24" width="56" height="48" class="key"/>
<text x="0" y="0" class="key tap">
<tspan x="0" dy="-0.75em">PG</tspan><tspan x="0" dy="1.5em">UP</tspan>
</text>
</g>
<g transform="translate(840, 98)" class="key keypos-21">
<rect rx="6" ry="6" x="-28" y="-24" width="56" height="48" class="key"/>
<text x="0" y="0" class="key tap">END</text>
</g>
<g transform="translate(900, 112)" class="key trans keypos-22">
<rect rx="6" ry="6" x="-28" y="-24" width="56" height="48" class="key trans"/>
<text x="0" y="0" class="key trans tap">▽</text>
</g>
<g transform="translate(960, 120)" class="key trans keypos-23">
<rect rx="6" ry="6" x="-28" y="-24" width="56" height="48" class="key trans"/>
<text x="0" y="0" class="key trans tap">▽</text>
</g>
<g transform="translate(30, 180)" class="key trans keypos-24">
<rect rx="6" ry="6" x="-28" y="-24" width="56" height="48" class="key trans"/>
<text x="0" y="0" class="key trans tap">▽</text>
</g>
<g transform="translate(90, 172)" class="key keypos-25">
<rect rx="6" ry="6" x="-28" y="-24" width="56" height="48" class="key"/>
<text x="0" y="0" class="key tap"><tspan style="font-size: 80%">LCTRL</tspan></text>
</g>
<g transform="translate(150, 158)" class="key keypos-26">
<rect rx="6" ry="6" x="-28" y="-24" width="56" height="48" class="key"/>
<text x="0" y="0" class="key tap">LALT</text>
</g>
<g transform="translate(210, 150)" class="key keypos-27">
<rect rx="6" ry="6" x="-28" y="-24" width="56" height="48" class="key"/>
<text x="0" y="0" class="key tap">LGUI</text>
</g>
<g transform="translate(270, 158)" class="key keypos-28">
<rect rx="6" ry="6" x="-28" y="-24" width="56" height="48" class="key"/>
<text x="0" y="0" class="key tap"><tspan style="font-size: 80%">LSHFT</tspan></text>
</g>
<g transform="translate(330, 165)" class="key trans keypos-29">
<rect rx="6" ry="6" x="-28" y="-24" width="56" height="48" class="key trans"/>
<text x="0" y="0" class="key trans tap">▽</text>
</g>
<g transform="translate(660, 165)" class="key keypos-30">
<rect rx="6" ry="6" x="-28" y="-24" width="56" height="48" class="key"/>
<text x="0" y="0" class="key tap">LEFT</text>
</g>
<g transform="translate(720, 158)" class="key keypos-31">
<rect rx="6" ry="6" x="-28" y="-24" width="56" height="48" class="key"/>
<text x="0" y="0" class="key tap">DOWN</text>
</g>
<g transform="translate(780, 150)" class="key keypos-32">
<rect rx="6" ry="6" x="-28" y="-24" width="56" height="48" class="key"/>
<text x="0" y="0" class="key tap">UP</text>
</g>
<g transform="translate(840, 158)" class="key keypos-33">
<rect rx="6" ry="6" x="-28" y="-24" width="56" height="48" class="key"/>
<text x="0" y="0" class="key tap"><tspan style="font-size: 80%">RIGHT</tspan></text>
</g>
<g transform="translate(900, 172)" class="key trans keypos-34">
<rect rx="6" ry="6" x="-28" y="-24" width="56" height="48" class="key trans"/>
<text x="0" y="0" class="key trans tap">▽</text>
</g>
<g transform="translate(960, 180)" class="key trans keypos-35">
<rect rx="6" ry="6" x="-28" y="-24" width="56" height="48" class="key trans"/>
<text x="0" y="0" class="key trans tap">▽</text>
</g>
<g transform="translate(30, 240)" class="key trans keypos-36">
<rect rx="6" ry="6" x="-28" y="-24" width="56" height="48" class="key trans"/>
<text x="0" y="0" class="key trans tap">▽</text>
</g>
<g transform="translate(90, 232)" class="key trans keypos-37">
<rect rx="6" ry="6" x="-28" y="-24" width="56" height="48" class="key trans"/>
<text x="0" y="0" class="key trans tap">▽</text>
</g>
<g transform="translate(150, 218)" class="key trans keypos-38">
<rect rx="6" ry="6" x="-28" y="-24" width="56" height="48" class="key trans"/>
<text x="0" y="0" class="key trans tap">▽</text>
</g>
<g transform="translate(210, 210)" class="key keypos-39">
<rect rx="6" ry="6" x="-28" y="-24" width="56" height="48" class="key"/>
<text x="0" y="0" class="key tap">
<tspan x="0" dy="-1.5em">Sft+</tspan><tspan x="0" dy="1.5em">Ctl+</tspan><tspan x="0" dy="1.5em">LALT</tspan>
</text>
</g>
<g transform="translate(270, 218)" class="key keypos-40">
<rect rx="6" ry="6" x="-28" y="-24" width="56" height="48" class="key"/>
<text x="0" y="0" class="key tap">
<tspan x="0" dy="-0.75em">Meh+</tspan><tspan x="0" dy="1.5em">LGUI</tspan>
</text>
</g>
<g transform="translate(330, 225)" class="key trans keypos-41">
<rect rx="6" ry="6" x="-28" y="-24" width="56" height="48" class="key trans"/>
<text x="0" y="0" class="key trans tap">▽</text>
</g>
<g transform="translate(390, 195)" class="key trans keypos-42">
<rect rx="6" ry="6" x="-28" y="-24" width="56" height="48" class="key trans"/>
<text x="0" y="0" class="key trans tap">▽</text>
</g>
<g transform="translate(600, 195)" class="key trans keypos-43">
<rect rx="6" ry="6" x="-28" y="-24" width="56" height="48" class="key trans"/>
<text x="0" y="0" class="key trans tap">▽</text>
</g>
<g transform="translate(660, 225)" class="key trans keypos-44">
<rect rx="6" ry="6" x="-28" y="-24" width="56" height="48" class="key trans"/>
<text x="0" y="0" class="key trans tap">▽</text>
</g>
<g transform="translate(720, 218)" class="key trans keypos-45">
<rect rx="6" ry="6" x="-28" y="-24" width="56" height="48" class="key trans"/>
<text x="0" y="0" class="key trans tap">▽</text>
</g>
<g transform="translate(780, 210)" class="key trans keypos-46">
<rect rx="6" ry="6" x="-28" y="-24" width="56" height="48" class="key trans"/>
<text x="0" y="0" class="key trans tap">▽</text>
</g>
<g transform="translate(840, 218)" class="key trans keypos-47">
<rect rx="6" ry="6" x="-28" y="-24" width="56" height="48" class="key trans"/>
<text x="0" y="0" class="key trans tap">▽</text>
</g>
<g transform="translate(900, 232)" class="key trans keypos-48">
<rect rx="6" ry="6" x="-28" y="-24" width="56" height="48" class="key trans"/>
<text x="0" y="0" class="key trans tap">▽</text>
</g>
<g transform="translate(960, 240)" class="key trans keypos-49">
<rect rx="6" ry="6" x="-28" y="-24" width="56" height="48" class="key trans"/>
<text x="0" y="0" class="key trans tap">▽</text>
</g>
<g transform="translate(180, 278)" class="key trans keypos-50">
<rect rx="6" ry="6" x="-28" y="-24" width="56" height="48" class="key trans"/>
<text x="0" y="0" class="key trans tap">▽</text>
</g>
<g transform="translate(240, 279)" class="key trans keypos-51">
<rect rx="6" ry="6" x="-28" y="-24" width="56" height="48" class="key trans"/>
<text x="0" y="0" class="key trans tap">▽</text>
</g>
<g transform="translate(300, 285)" class="key trans keypos-52">
<rect rx="6" ry="6" x="-28" y="-24" width="56" height="48" class="key trans"/>
<text x="0" y="0" class="key trans tap">▽</text>
</g>
<g transform="translate(375, 285) rotate(30.0)" class="key held keypos-53">
<rect rx="6" ry="6" x="-28" y="-39" width="56" height="78" class="key held"/>
</g>
<g transform="translate(615, 285) rotate(-30.0)" class="key keypos-54">
<rect rx="6" ry="6" x="-28" y="-39" width="56" height="78" class="key"/>
<text x="0" y="0" class="key tap">RET</text>
</g>
<g transform="translate(690, 285)" class="key keypos-55">
<rect rx="6" ry="6" x="-28" y="-24" width="56" height="48" class="key"/>
<text x="0" y="0" class="key tap">BSPC</text>
</g>
<g transform="translate(750, 279)" class="key keypos-56">
<rect rx="6" ry="6" x="-28" y="-24" width="56" height="48" class="key"/>
<text x="0" y="0" class="key tap">DEL</text>
</g>
<g transform="translate(810, 279)" class="key trans keypos-57">
<rect rx="6" ry="6" x="-28" y="-24" width="56" height="48" class="key trans"/>
<text x="0" y="0" class="key trans tap">▽</text>
</g>
<g class="combo combopos-0">
<rect rx="6" ry="6" x="140" y="118" width="20" height="18" class="combo"/>
<text x="150" y="128" class="combo tap">@</text>
</g>
<g class="combo combopos-1">
<rect rx="6" ry="6" x="200" y="111" width="20" height="18" class="combo"/>
<text x="210" y="120" class="combo tap">#</text>
</g>
<g class="combo combopos-2">
<rect rx="6" ry="6" x="260" y="118" width="20" height="18" class="combo"/>
<text x="270" y="128" class="combo tap">$</text>
</g>
<g class="combo combopos-3">
<rect rx="6" ry="6" x="320" y="126" width="20" height="18" class="combo"/>
<text x="330" y="135" class="combo tap">%</text>
</g>
<g class="combo combopos-4">
<rect rx="6" ry="6" x="140" y="178" width="20" height="18" class="combo"/>
<text x="150" y="188" class="combo tap">`</text>
</g>
<g class="combo combopos-5">
<rect rx="6" ry="6" x="200" y="171" width="20" height="18" class="combo"/>
<text x="210" y="180" class="combo tap">\</text>
</g>
<g class="combo combopos-6">
<rect rx="6" ry="6" x="260" y="178" width="20" height="18" class="combo"/>
<text x="270" y="188" class="combo tap">=</text>
</g>
<g class="combo combopos-7">
<rect rx="6" ry="6" x="320" y="186" width="20" height="18" class="combo"/>
<text x="330" y="195" class="combo tap">~</text>
</g>
<g class="combo combopos-8">
<path d="M210,218 l-40,0" class="combo"/>
<path d="M210,218 l40,0" class="combo"/>
<rect rx="6" ry="6" x="200" y="208" width="20" height="18" class="combo"/>
<text x="210" y="218" class="combo tap">
<tspan x="210" dy="-0.75em">Gui+</tspan><tspan x="210" dy="1.5em">X</tspan>
</text>
</g>
<g class="combo combopos-9">
<rect rx="6" ry="6" x="170" y="205" width="20" height="18" class="combo"/>
<text x="180" y="214" class="combo tap">
<tspan x="180" dy="-0.75em">Gui+</tspan><tspan x="180" dy="1.5em">C</tspan>
</text>
</g>
<g class="combo combopos-10">
<rect rx="6" ry="6" x="230" y="205" width="20" height="18" class="combo"/>
<text x="240" y="214" class="combo tap">
<tspan x="240" dy="-0.75em">Gui+</tspan><tspan x="240" dy="1.5em">V</tspan>
</text>
</g>
<g class="combo combopos-11">
<rect rx="6" ry="6" x="650" y="126" width="20" height="18" class="combo"/>
<text x="660" y="135" class="combo tap">^</text>
</g>
<g class="combo combopos-12">
<rect rx="6" ry="6" x="710" y="118" width="20" height="18" class="combo"/>
<text x="720" y="128" class="combo tap">+</text>
</g>
<g class="combo combopos-13">
<rect rx="6" ry="6" x="770" y="111" width="20" height="18" class="combo"/>
<text x="780" y="120" class="combo tap">*</text>
</g>
<g class="combo combopos-14">
<rect rx="6" ry="6" x="830" y="118" width="20" height="18" class="combo"/>
<text x="840" y="128" class="combo tap">&amp;</text>
</g>
<g class="combo combopos-15">
<rect rx="6" ry="6" x="650" y="186" width="20" height="18" class="combo"/>
<text x="660" y="195" class="combo tap">_</text>
</g>
<g class="combo combopos-16">
<rect rx="6" ry="6" x="710" y="178" width="20" height="18" class="combo"/>
<text x="720" y="188" class="combo tap">-</text>
</g>
<g class="combo combopos-17">
<rect rx="6" ry="6" x="770" y="171" width="20" height="18" class="combo"/>
<text x="780" y="180" class="combo tap">/</text>
</g>
<g class="combo combopos-18">
<rect rx="6" ry="6" x="830" y="178" width="20" height="18" class="combo"/>
<text x="840" y="188" class="combo tap">|</text>
</g>
<g class="combo combopos-19">
<rect rx="6" ry="6" x="740" y="85" width="20" height="18" class="combo"/>
<text x="750" y="94" class="combo tap">[</text>
</g>
<g class="combo combopos-20">
<rect rx="6" ry="6" x="800" y="85" width="20" height="18" class="combo"/>
<text x="810" y="94" class="combo tap">]</text>
</g>
<g class="combo combopos-21">
<rect rx="6" ry="6" x="740" y="145" width="20" height="18" class="combo"/>
<text x="750" y="154" class="combo tap">(</text>
</g>
<g class="combo combopos-22">
<rect rx="6" ry="6" x="800" y="145" width="20" height="18" class="combo"/>
<text x="810" y="154" class="combo tap">)</text>
</g>
<g class="combo combopos-23">
<rect rx="6" ry="6" x="740" y="205" width="20" height="18" class="combo"/>
<text x="750" y="214" class="combo tap">{</text>
</g>
<g class="combo combopos-24">
<rect rx="6" ry="6" x="800" y="205" width="20" height="18" class="combo"/>
<text x="810" y="214" class="combo tap">}</text>
</g>
<g class="combo combopos-25">
<rect rx="6" ry="6" x="680" y="152" width="20" height="18" class="combo"/>
<text x="690" y="161" class="combo tap">&lt;</text>
</g>
<g class="combo combopos-26">
<rect rx="6" ry="6" x="860" y="156" width="20" height="18" class="combo"/>
<text x="870" y="165" class="combo tap">&gt;</text>
</g>
<g class="combo combopos-27">
<path d="M495,158 l-205,0" class="combo"/>
<path d="M495,158 l205,0" class="combo"/>
<rect rx="6" ry="6" x="485" y="148" width="20" height="18" class="combo"/>
<text x="495" y="158" class="combo tap"><tspan style="font-size: 67%">&amp;caps…</tspan></text>
</g>
</g>
</g>
<g transform="translate(30, 395)" class="layer-NUM">
<text x="0" y="28" class="label" id="NUM">NUM</text>
<g transform="translate(0, 56)">
<g transform="translate(30, 60)" class="key trans keypos-0">
<rect rx="6" ry="6" x="-28" y="-24" width="56" height="48" class="key trans"/>
<text x="0" y="0" class="key trans tap">▽</text>
</g>
<g transform="translate(90, 52)" class="key trans keypos-1">
<rect rx="6" ry="6" x="-28" y="-24" width="56" height="48" class="key trans"/>
<text x="0" y="0" class="key trans tap">▽</text>
</g>
<g transform="translate(150, 38)" class="key trans keypos-2">
<rect rx="6" ry="6" x="-28" y="-24" width="56" height="48" class="key trans"/>
<text x="0" y="0" class="key trans tap">▽</text>
</g>
<g transform="translate(210, 30)" class="key trans keypos-3">
<rect rx="6" ry="6" x="-28" y="-24" width="56" height="48" class="key trans"/>
<text x="0" y="0" class="key trans tap">▽</text>
</g>
<g transform="translate(270, 38)" class="key trans keypos-4">
<rect rx="6" ry="6" x="-28" y="-24" width="56" height="48" class="key trans"/>
<text x="0" y="0" class="key trans tap">▽</text>
</g>
<g transform="translate(330, 45)" class="key trans keypos-5">
<rect rx="6" ry="6" x="-28" y="-24" width="56" height="48" class="key trans"/>
<text x="0" y="0" class="key trans tap">▽</text>
</g>
<g transform="translate(660, 45)" class="key trans keypos-6">
<rect rx="6" ry="6" x="-28" y="-24" width="56" height="48" class="key trans"/>
<text x="0" y="0" class="key trans tap">▽</text>
</g>
<g transform="translate(720, 38)" class="key trans keypos-7">
<rect rx="6" ry="6" x="-28" y="-24" width="56" height="48" class="key trans"/>
<text x="0" y="0" class="key trans tap">▽</text>
</g>
<g transform="translate(780, 30)" class="key trans keypos-8">
<rect rx="6" ry="6" x="-28" y="-24" width="56" height="48" class="key trans"/>
<text x="0" y="0" class="key trans tap">▽</text>
</g>
<g transform="translate(840, 38)" class="key trans keypos-9">
<rect rx="6" ry="6" x="-28" y="-24" width="56" height="48" class="key trans"/>
<text x="0" y="0" class="key trans tap">▽</text>
</g>
<g transform="translate(900, 52)" class="key trans keypos-10">
<rect rx="6" ry="6" x="-28" y="-24" width="56" height="48" class="key trans"/>
<text x="0" y="0" class="key trans tap">▽</text>
</g>
<g transform="translate(960, 60)" class="key trans keypos-11">
<rect rx="6" ry="6" x="-28" y="-24" width="56" height="48" class="key trans"/>
<text x="0" y="0" class="key trans tap">▽</text>
</g>
<g transform="translate(30, 120)" class="key trans keypos-12">
<rect rx="6" ry="6" x="-28" y="-24" width="56" height="48" class="key trans"/>
<text x="0" y="0" class="key trans tap">▽</text>
</g>
<g transform="translate(90, 112)" class="key keypos-13">
<rect rx="6" ry="6" x="-28" y="-24" width="56" height="48" class="key"/>
<text x="0" y="0" class="key tap">F1</text>
</g>
<g transform="translate(150, 98)" class="key keypos-14">
<rect rx="6" ry="6" x="-28" y="-24" width="56" height="48" class="key"/>
<text x="0" y="0" class="key tap">F2</text>
</g>
<g transform="translate(210, 90)" class="key keypos-15">
<rect rx="6" ry="6" x="-28" y="-24" width="56" height="48" class="key"/>
<text x="0" y="0" class="key tap">F3</text>
</g>
<g transform="translate(270, 98)" class="key keypos-16">
<rect rx="6" ry="6" x="-28" y="-24" width="56" height="48" class="key"/>
<text x="0" y="0" class="key tap">F4</text>
</g>
<g transform="translate(330, 105)" class="key keypos-17">
<rect rx="6" ry="6" x="-28" y="-24" width="56" height="48" class="key"/>
<text x="0" y="0" class="key tap">F5</text>
</g>
<g transform="translate(660, 105)" class="key keypos-18">
<rect rx="6" ry="6" x="-28" y="-24" width="56" height="48" class="key"/>
<text x="0" y="0" class="key tap">F6</text>
</g>
<g transform="translate(720, 98)" class="key keypos-19">
<rect rx="6" ry="6" x="-28" y="-24" width="56" height="48" class="key"/>
<text x="0" y="0" class="key tap">F7</text>
</g>
<g transform="translate(780, 90)" class="key keypos-20">
<rect rx="6" ry="6" x="-28" y="-24" width="56" height="48" class="key"/>
<text x="0" y="0" class="key tap">F8</text>
</g>
<g transform="translate(840, 98)" class="key keypos-21">
<rect rx="6" ry="6" x="-28" y="-24" width="56" height="48" class="key"/>
<text x="0" y="0" class="key tap">F9</text>
</g>
<g transform="translate(900, 112)" class="key keypos-22">
<rect rx="6" ry="6" x="-28" y="-24" width="56" height="48" class="key"/>
<text x="0" y="0" class="key tap">F10</text>
</g>
<g transform="translate(960, 120)" class="key trans keypos-23">
<rect rx="6" ry="6" x="-28" y="-24" width="56" height="48" class="key trans"/>
<text x="0" y="0" class="key trans tap">▽</text>
</g>
<g transform="translate(30, 180)" class="key trans keypos-24">
<rect rx="6" ry="6" x="-28" y="-24" width="56" height="48" class="key trans"/>
<text x="0" y="0" class="key trans tap">▽</text>
</g>
<g transform="translate(90, 172)" class="key keypos-25">
<rect rx="6" ry="6" x="-28" y="-24" width="56" height="48" class="key"/>
<text x="0" y="0" class="key tap">1</text>
</g>
<g transform="translate(150, 158)" class="key keypos-26">
<rect rx="6" ry="6" x="-28" y="-24" width="56" height="48" class="key"/>
<text x="0" y="0" class="key tap">2</text>
</g>
<g transform="translate(210, 150)" class="key keypos-27">
<rect rx="6" ry="6" x="-28" y="-24" width="56" height="48" class="key"/>
<text x="0" y="0" class="key tap">3</text>
</g>
<g transform="translate(270, 158)" class="key keypos-28">
<rect rx="6" ry="6" x="-28" y="-24" width="56" height="48" class="key"/>
<text x="0" y="0" class="key tap">4</text>
</g>
<g transform="translate(330, 165)" class="key keypos-29">
<rect rx="6" ry="6" x="-28" y="-24" width="56" height="48" class="key"/>
<text x="0" y="0" class="key tap">5</text>
</g>
<g transform="translate(660, 165)" class="key keypos-30">
<rect rx="6" ry="6" x="-28" y="-24" width="56" height="48" class="key"/>
<text x="0" y="0" class="key tap">6</text>
</g>
<g transform="translate(720, 158)" class="key keypos-31">
<rect rx="6" ry="6" x="-28" y="-24" width="56" height="48" class="key"/>
<text x="0" y="0" class="key tap">7</text>
</g>
<g transform="translate(780, 150)" class="key keypos-32">
<rect rx="6" ry="6" x="-28" y="-24" width="56" height="48" class="key"/>
<text x="0" y="0" class="key tap">8</text>
</g>
<g transform="translate(840, 158)" class="key keypos-33">
<rect rx="6" ry="6" x="-28" y="-24" width="56" height="48" class="key"/>
<text x="0" y="0" class="key tap">9</text>
</g>
<g transform="translate(900, 172)" class="key keypos-34">
<rect rx="6" ry="6" x="-28" y="-24" width="56" height="48" class="key"/>
<text x="0" y="0" class="key tap">0</text>
</g>
<g transform="translate(960, 180)" class="key trans keypos-35">
<rect rx="6" ry="6" x="-28" y="-24" width="56" height="48" class="key trans"/>
<text x="0" y="0" class="key trans tap">▽</text>
</g>
<g transform="translate(30, 240)" class="key trans keypos-36">
<rect rx="6" ry="6" x="-28" y="-24" width="56" height="48" class="key trans"/>
<text x="0" y="0" class="key trans tap">▽</text>
</g>
<g transform="translate(90, 232)" class="key keypos-37">
<rect rx="6" ry="6" x="-28" y="-24" width="56" height="48" class="key"/>
<text x="0" y="0" class="key tap">F11</text>
</g>
<g transform="translate(150, 218)" class="key keypos-38">
<rect rx="6" ry="6" x="-28" y="-24" width="56" height="48" class="key"/>
<text x="0" y="0" class="key tap">F12</text>
</g>
<g transform="translate(210, 210)" class="key trans keypos-39">
<rect rx="6" ry="6" x="-28" y="-24" width="56" height="48" class="key trans"/>
<text x="0" y="0" class="key trans tap">▽</text>
</g>
<g transform="translate(270, 218)" class="key trans keypos-40">
<rect rx="6" ry="6" x="-28" y="-24" width="56" height="48" class="key trans"/>
<text x="0" y="0" class="key trans tap">▽</text>
</g>
<g transform="translate(330, 225)" class="key trans keypos-41">
<rect rx="6" ry="6" x="-28" y="-24" width="56" height="48" class="key trans"/>
<text x="0" y="0" class="key trans tap">▽</text>
</g>
<g transform="translate(390, 195)" class="key trans keypos-42">
<rect rx="6" ry="6" x="-28" y="-24" width="56" height="48" class="key trans"/>
<text x="0" y="0" class="key trans tap">▽</text>
</g>
<g transform="translate(600, 195)" class="key trans keypos-43">
<rect rx="6" ry="6" x="-28" y="-24" width="56" height="48" class="key trans"/>
<text x="0" y="0" class="key trans tap">▽</text>
</g>
<g transform="translate(660, 225)" class="key trans keypos-44">
<rect rx="6" ry="6" x="-28" y="-24" width="56" height="48" class="key trans"/>
<text x="0" y="0" class="key trans tap">▽</text>
</g>
<g transform="translate(720, 218)" class="key keypos-45">
<rect rx="6" ry="6" x="-28" y="-24" width="56" height="48" class="key"/>
<text x="0" y="0" class="key tap"><tspan style="font-size: 80%">LSHFT</tspan></text>
</g>
<g transform="translate(780, 210)" class="key keypos-46">
<rect rx="6" ry="6" x="-28" y="-24" width="56" height="48" class="key"/>
<text x="0" y="0" class="key tap">LGUI</text>
</g>
<g transform="translate(840, 218)" class="key keypos-47">
<rect rx="6" ry="6" x="-28" y="-24" width="56" height="48" class="key"/>
<text x="0" y="0" class="key tap">LALT</text>
</g>
<g transform="translate(900, 232)" class="key keypos-48">
<rect rx="6" ry="6" x="-28" y="-24" width="56" height="48" class="key"/>
<text x="0" y="0" class="key tap"><tspan style="font-size: 80%">LCTRL</tspan></text>
</g>
<g transform="translate(960, 240)" class="key trans keypos-49">
<rect rx="6" ry="6" x="-28" y="-24" width="56" height="48" class="key trans"/>
<text x="0" y="0" class="key trans tap">▽</text>
</g>
<g transform="translate(180, 278)" class="key trans keypos-50">
<rect rx="6" ry="6" x="-28" y="-24" width="56" height="48" class="key trans"/>
<text x="0" y="0" class="key trans tap">▽</text>
</g>
<g transform="translate(240, 279)" class="key trans keypos-51">
<rect rx="6" ry="6" x="-28" y="-24" width="56" height="48" class="key trans"/>
<text x="0" y="0" class="key trans tap">▽</text>
</g>
<g transform="translate(300, 285)" class="key trans keypos-52">
<rect rx="6" ry="6" x="-28" y="-24" width="56" height="48" class="key trans"/>
<text x="0" y="0" class="key trans tap">▽</text>
</g>
<g transform="translate(375, 285) rotate(30.0)" class="key trans keypos-53">
<rect rx="6" ry="6" x="-28" y="-39" width="56" height="78" class="key trans"/>
<text x="0" y="0" class="key trans tap">▽</text>
</g>
<g transform="translate(615, 285) rotate(-30.0)" class="key held keypos-54">
<rect rx="6" ry="6" x="-28" y="-39" width="56" height="78" class="key held"/>
</g>
<g transform="translate(690, 285)" class="key trans keypos-55">
<rect rx="6" ry="6" x="-28" y="-24" width="56" height="48" class="key trans"/>
<text x="0" y="0" class="key trans tap">▽</text>
</g>
<g transform="translate(750, 279)" class="key trans keypos-56">
<rect rx="6" ry="6" x="-28" y="-24" width="56" height="48" class="key trans"/>
<text x="0" y="0" class="key trans tap">▽</text>
</g>
<g transform="translate(810, 279)" class="key trans keypos-57">
<rect rx="6" ry="6" x="-28" y="-24" width="56" height="48" class="key trans"/>
<text x="0" y="0" class="key trans tap">▽</text>
</g>
<g class="combo combopos-0">
<rect rx="6" ry="6" x="140" y="118" width="20" height="18" class="combo"/>
<text x="150" y="128" class="combo tap">@</text>
</g>
<g class="combo combopos-1">
<rect rx="6" ry="6" x="200" y="111" width="20" height="18" class="combo"/>
<text x="210" y="120" class="combo tap">#</text>
</g>
<g class="combo combopos-2">
<rect rx="6" ry="6" x="260" y="118" width="20" height="18" class="combo"/>
<text x="270" y="128" class="combo tap">$</text>
</g>
<g class="combo combopos-3">
<rect rx="6" ry="6" x="320" y="126" width="20" height="18" class="combo"/>
<text x="330" y="135" class="combo tap">%</text>
</g>
<g class="combo combopos-4">
<rect rx="6" ry="6" x="140" y="178" width="20" height="18" class="combo"/>
<text x="150" y="188" class="combo tap">`</text>
</g>
<g class="combo combopos-5">
<rect rx="6" ry="6" x="200" y="171" width="20" height="18" class="combo"/>
<text x="210" y="180" class="combo tap">\</text>
</g>
<g class="combo combopos-6">
<rect rx="6" ry="6" x="260" y="178" width="20" height="18" class="combo"/>
<text x="270" y="188" class="combo tap">=</text>
</g>
<g class="combo combopos-7">
<rect rx="6" ry="6" x="320" y="186" width="20" height="18" class="combo"/>
<text x="330" y="195" class="combo tap">~</text>
</g>
<g class="combo combopos-8">
<path d="M210,218 l-40,0" class="combo"/>
<path d="M210,218 l40,0" class="combo"/>
<rect rx="6" ry="6" x="200" y="208" width="20" height="18" class="combo"/>
<text x="210" y="218" class="combo tap">
<tspan x="210" dy="-0.75em">Gui+</tspan><tspan x="210" dy="1.5em">X</tspan>
</text>
</g>
<g class="combo combopos-9">
<rect rx="6" ry="6" x="170" y="205" width="20" height="18" class="combo"/>
<text x="180" y="214" class="combo tap">
<tspan x="180" dy="-0.75em">Gui+</tspan><tspan x="180" dy="1.5em">C</tspan>
</text>
</g>
<g class="combo combopos-10">
<rect rx="6" ry="6" x="230" y="205" width="20" height="18" class="combo"/>
<text x="240" y="214" class="combo tap">
<tspan x="240" dy="-0.75em">Gui+</tspan><tspan x="240" dy="1.5em">V</tspan>
</text>
</g>
<g class="combo combopos-11">
<rect rx="6" ry="6" x="650" y="126" width="20" height="18" class="combo"/>
<text x="660" y="135" class="combo tap">^</text>
</g>
<g class="combo combopos-12">
<rect rx="6" ry="6" x="710" y="118" width="20" height="18" class="combo"/>
<text x="720" y="128" class="combo tap">+</text>
</g>
<g class="combo combopos-13">
<rect rx="6" ry="6" x="770" y="111" width="20" height="18" class="combo"/>
<text x="780" y="120" class="combo tap">*</text>
</g>
<g class="combo combopos-14">
<rect rx="6" ry="6" x="830" y="118" width="20" height="18" class="combo"/>
<text x="840" y="128" class="combo tap">&amp;</text>
</g>
<g class="combo combopos-15">
<rect rx="6" ry="6" x="650" y="186" width="20" height="18" class="combo"/>
<text x="660" y="195" class="combo tap">_</text>
</g>
<g class="combo combopos-16">
<rect rx="6" ry="6" x="710" y="178" width="20" height="18" class="combo"/>
<text x="720" y="188" class="combo tap">-</text>
</g>
<g class="combo combopos-17">
<rect rx="6" ry="6" x="770" y="171" width="20" height="18" class="combo"/>
<text x="780" y="180" class="combo tap">/</text>
</g>
<g class="combo combopos-18">
<rect rx="6" ry="6" x="830" y="178" width="20" height="18" class="combo"/>
<text x="840" y="188" class="combo tap">|</text>
</g>
<g class="combo combopos-19">
<rect rx="6" ry="6" x="740" y="85" width="20" height="18" class="combo"/>
<text x="750" y="94" class="combo tap">[</text>
</g>
<g class="combo combopos-20">
<rect rx="6" ry="6" x="800" y="85" width="20" height="18" class="combo"/>
<text x="810" y="94" class="combo tap">]</text>
</g>
<g class="combo combopos-21">
<rect rx="6" ry="6" x="740" y="145" width="20" height="18" class="combo"/>
<text x="750" y="154" class="combo tap">(</text>
</g>
<g class="combo combopos-22">
<rect rx="6" ry="6" x="800" y="145" width="20" height="18" class="combo"/>
<text x="810" y="154" class="combo tap">)</text>
</g>
<g class="combo combopos-23">
<rect rx="6" ry="6" x="740" y="205" width="20" height="18" class="combo"/>
<text x="750" y="214" class="combo tap">{</text>
</g>
<g class="combo combopos-24">
<rect rx="6" ry="6" x="800" y="205" width="20" height="18" class="combo"/>
<text x="810" y="214" class="combo tap">}</text>
</g>
<g class="combo combopos-25">
<rect rx="6" ry="6" x="680" y="152" width="20" height="18" class="combo"/>
<text x="690" y="161" class="combo tap">&lt;</text>
</g>
<g class="combo combopos-26">
<rect rx="6" ry="6" x="860" y="156" width="20" height="18" class="combo"/>
<text x="870" y="165" class="combo tap">&gt;</text>
</g>
<g class="combo combopos-27">
<path d="M495,158 l-205,0" class="combo"/>
<path d="M495,158 l205,0" class="combo"/>
<rect rx="6" ry="6" x="485" y="148" width="20" height="18" class="combo"/>
<text x="495" y="158" class="combo tap"><tspan style="font-size: 67%">&amp;caps…</tspan></text>
</g>
</g>
</g>
</svg>
